<svg xmlns="http://www.w3.org/2000/svg" width="148" height="44" viewBox="0 0 148 44">
  <defs>
    <style>
      .cls-1 {
        fill: #196ea6;
      }
    </style>
  </defs>
  <g id="Parasset" transform="translate(-46 -22)">
    <path id="PARASSET_LOGO" class="cls-1" d="M0,17.788l3.932,3.524V44L0,40.476Zm3.932.8s-.824-8.477,6.637-12.738a13.72,13.72,0,0,1,14.8.573l2.8-2.808A17.877,17.877,0,0,0,9.183,2.1C.621,7.124.157,15.169.157,15.169ZM5.638,30.448a17.555,17.555,0,0,0,9.8,4.57,17.744,17.744,0,0,0,12.874-3.626l-2.8-2.8s-3.5,3.192-10,2.42-9.875-6.8-9.875-6.8ZM26.709,7.5a14.619,14.619,0,0,1,4.419,10.056,14.322,14.322,0,0,1-4.291,9.935l2.772,2.776A17.1,17.1,0,0,0,35.06,17.558,17.386,17.386,0,0,0,29.483,4.725ZM54.93,17.787,51,21.311V44l3.932-3.524Zm-.156-2.617S54.31,7.125,45.748,2.1A17.605,17.605,0,0,0,29.1,2.138l3.172,2.814a13.757,13.757,0,0,1,12.09.9C51.822,10.108,51,18.586,51,18.586Zm-5.481,9.046s-3.374,6.026-9.875,6.8a14.787,14.787,0,0,1-7.149-.8,29.025,29.025,0,0,1-3.175,2.809,18.554,18.554,0,0,0,10.395,2,17.555,17.555,0,0,0,9.8-4.57ZM23.532,6.8a17.678,17.678,0,0,0,0,21.544c1.388-1.214,1.7-1.475,3.042-2.6A13.964,13.964,0,0,1,23.8,17.557a14.023,14.023,0,0,1,2.771-8.145C25.218,8.261,24.624,7.785,23.532,6.8Zm59-3.714h1.1s3.755,0,3.755,3.685-3.755,3.685-3.755,3.685h-1.1v3.084h1.974s6.809,0,6.809-6.769S84.506,0,84.506,0H82.532ZM80.826,0,76.9,3.518V20.781l3.93-3.518Zm36.931,3.089h1.129s3.865,0,3.865,3.685-3.865,3.685-3.865,3.685h-1.129v3.084h2.031s7.008,0,7.008-6.769S119.788.006,119.788.006h-2.031ZM116.051.006,112.12,3.524V20.786l3.931-3.518Zm1.706,13.537,4.7,7.245h4.707l-5.487-7.8ZM91.314,20.787h4.007l5.258-17.7,5.234,17.7h4.232L103.109,0H98.252Zm7.291-5.315h3.925l-.981-3.31h-1.96Zm30.663,5.315h4.007l5.259-17.7,5.234,17.7H148L141.063,0h-4.858Zm7.291-5.315h3.925l-.981-3.31h-1.961Zm4.024,11.045-3.932,3.521V43.993l3.931-3.518Zm-11.332-3.306v3.312h18.732V23.211Zm-13.2,0L112.12,26.73V43.993l3.931-3.518Zm1.706,0v3.312h9.41V23.211Zm0,8.251v3.285h7.888V31.462Zm0,9.253v3.278h9.41V40.715ZM88.484,28.87l3.031-1.433s-.74-4.226-6.863-4.226c-6.726,0-6.96,5.828-6.96,5.828a5.259,5.259,0,0,0,1.479,3.813,7.187,7.187,0,0,0,2.957,1.629c1.1-1.1,3.2-2.868,3.2-2.868s-3.832-.5-3.832-2.574c0-.592-.114-2.6,3.153-2.6S88.484,28.87,88.484,28.87Zm-4.628,5.993s4.167.37,4.167,3.138c0,0,.391,2.768-3.565,2.768S80,37.9,80,37.9l-3.056,1.433S77.832,44,84.483,44c2.091,0,7.372-.911,7.372-6.1a5.779,5.779,0,0,0-4.809-5.9Zm22.185-5.993,3.031-1.433s-.739-4.226-6.863-4.226c-6.726,0-6.96,5.828-6.96,5.828a5.259,5.259,0,0,0,1.479,3.813,7.187,7.187,0,0,0,2.957,1.629c1.1-1.1,3.2-2.868,3.2-2.868s-3.832-.5-3.832-2.574c0-.592-.114-2.6,3.153-2.6S106.041,28.87,106.041,28.87Zm-4.628,5.993s4.167.37,4.167,3.138c0,0,.391,2.768-3.564,2.768S97.553,37.9,97.553,37.9L94.5,39.337S95.389,44,102.039,44c2.091,0,7.372-.911,7.372-6.1a5.779,5.779,0,0,0-4.808-5.9Z" transform="translate(46 22)"/>
  </g>
</svg>
